<svg xmlns="http://www.w3.org/2000/svg" width="140" height="44" viewBox="0 0 140 44" aria-hidden="true">
    <path fill="#ffed00" d="M140 0H0v44h140V0Z"/>
    <path fill="#24388d" d="M133.7 12.2c-1.7 0-3-1.4-3-3.1s1.4-3.1 3-3.1 3 1.4 3 3.1-1.4 3.1-3 3.1Zm0-5.6c-1.4 0-2.4 1.1-2.4 2.6s1.1 2.6 2.4 2.6 2.4-1.1 2.4-2.6-1.1-2.6-2.4-2.6Zm.7 4.3-.3-.5c-.2-.4-.4-.7-.6-.8 0 0-.1-.1-.2-.1V11h-.6V7.6h1c.8 0 1.1.4 1.1 1s-.3.9-.8.9c.1 0 .3.4.5.7l.5.8h-.7Zm-1.1-3V9h.3c.3 0 .5 0 .6-.1.1 0 .2-.2.2-.4 0-.4-.2-.5-.7-.5h-.3ZM33 13.6l-6.3 7.5h-5l6.3-7.5-6.3-7.4h5m15.1 17.5c0 3.2-2.5 5.4-5.1 6.4l-2.2-2.4c2.3-1.6 2.5-2.7 2.5-6V6.3h4.9v17.4ZM67.7 6.3h4.8V25h-4.8V6.3Zm10 8.5 5.8 10.1h-6.3l-4.7-10.1 4.1-8.6h5.9l-4.9 8.6Zm18.7 10.1-1-3.6H91l-1 3.6h-5l6-18.7h5l5.6 18.7h-5.2Zm-2.7-10.6c-.2-.8-.3-1.9-.3-2.6 0 .7-.2 1.7-.5 3l-.7 3.1h2.4l-.8-3.4Zm19.9 10.6-1.9-5.2c-.7-1.9-1.1-2.2-2.2-2.2v7.4h-4.8V6.3h6.4c5.5 0 7.2 2.2 7.2 5.3s-1.7 4.9-3.9 5.2c.6.2 1.4 1 1.9 2 .6 1.3 2.2 4.7 2.8 6.1h-5.5Zm-4.1-14.7V14h1.4c1.6 0 2.2-.8 2.2-2s-.7-1.8-2.2-1.8h-1.3Zm18.3-3.9h-4.9V25h4.9V6.3ZM65 15.6c0 5.6-4.5 10.1-10 10.1s-10-4.5-10-10.1S49.5 5.5 55 5.5 65 10 65 15.6Z"/>
    <path fill="#ffed00" d="M60.4 15.6c0 3.1-2.5 5.5-5.5 5.5s-5.5-2.5-5.5-5.5 2.5-5.5 5.5-5.5 5.5 2.5 5.5 5.5Z"/>
    <path fill="#24388d" d="M88.4 39.6c-1.8 0-3-1.4-3-3.7s1.1-3.6 2.9-3.6 3 1.6 3 3.7-1.2 3.6-3 3.6m.1-6.4c-1.1 0-1.5.8-1.5 2.5s.5 2.8 1.6 2.8 1.5-.7 1.5-2.6-.6-2.8-1.6-2.8Zm7.9.4h-.4c-.8 0-1.4.7-1.4 1.4v4.5h-1.3v-5.1c0-.8 0-1.3-.3-1.7l1.2-.3c.1.3.2.7.2 1.1.5-.7 1.1-1.1 1.9-1.1h.4l-.4 1.3Zm2.2-2.4c-.5 0-.9-.4-.9-.9s.4-.9.9-.9.9.4.9.9-.4.9-.9.9Zm-.6 8.2v-6.9l1.3-.2v7.1h-1.3Zm8.6-6c-.2 0-.3 0-.6-.1.4.5.5.8.5 1.3 0 1-.7 2.1-2.5 2.1-.4.1-1.1.5-1.1.8s.2.3.5.3h1.1c1.8 0 2.5.8 2.5 1.9s-1.2 2.2-2.9 2.2-3-.7-3-1.8 0-.5.1-.7h1.2s-.1.3-.1.5c0 .7.6 1.1 1.7 1.1s1.7-.5 1.7-1.2-.5-1.1-1.9-1.1h-1.3c-.6 0-1-.4-1-.9s.6-.9 1.3-1.2c-1.1-.3-1.6-1-1.6-2 0-1.4 1.1-2.3 2.6-2.3s.7 0 1.1.2c.4.1.7.2 1 .2s.8-.1 1.1-.4l.6.8c-.4.3-.7.4-1.1.4m-2.7-.3c-.8 0-1.2.4-1.2 1.3s.5 1.3 1.3 1.3 1.2-.5 1.2-1.3-.4-1.3-1.3-1.3Zm5.5-2c-.5 0-.9-.4-.9-.9s.4-.9.9-.9.9.4.9.9-.4.9-.9.9m-.6 8.2v-6.9l1.3-.2v7.1h-1.3Zm7.4 0v-4.7c0-.6 0-.8-.2-1.1-.1-.2-.4-.3-.7-.3-.5 0-1.2.4-1.7.9v5.1h-1.2v-5.1c0-.8 0-1.1-.3-1.6l1.2-.3c.2.3.2.6.2 1.1.4-.3.6-.5.9-.7.4-.2.9-.3 1.3-.3.7 0 1.4.4 1.6 1 .1.2.2.5.2.9v5.2h-1.2Zm8 .3c-.4-.2-.8-.5-.9-1-.2.2-.8.9-1.9.9s-2.2-.7-2.2-2 1.3-2.5 3.5-2.5h.5v-.5c0-.8-.1-1.4-1.1-1.4s-1.5.4-2.1.8l-.6-.9c.7-.4 1.5-.9 2.9-.9s1.7.4 2 1.1c.1.3.1.5.1 1.2v2.6c0 1 0 1.3.6 1.7l-.6.9Zm-1.5-3.7c-.9 0-1.5.2-1.8.5-.3.3-.4.5-.4 1 0 .8.4 1.2 1.1 1.2s1.1-.4 1.4-.9V36h-.4m5.3 3.5c-.5 0-.8-.2-1.1-.5-.2-.3-.3-.5-.3-1.2v-6.3c0-1 0-1.5-.1-2l1.3-.3c.1.5.1 1.1.1 2v6.2c0 .7 0 .9.2 1 0 0 .3.1.4 0l.2.8c-.3.1-.5.2-.8.2M25.2 13.6l-6.3 7.5h-5l6.3-7.5-6.3-7.4h5"/>
    <path fill="#24388d" d="m17.5 13.6-6.3 7.5h-5l6.3-7.5-6.3-7.4h5"/>
</svg>
